<svg width="137" height="130" viewBox="0 0 137 130" fill="none" xmlns="http://www.w3.org/2000/svg">
<path d="M125.234 0H80.9111C75.2296 0 70.0356 3.21004 67.4947 8.2918L64.849 13.5832C62.3082 18.665 57.1142 21.875 51.4326 21.875H15C6.71573 21.875 0 28.5907 0 36.875V99.8438C0 108.128 6.71573 114.844 15 114.844H121.719C130.003 114.844 136.719 108.128 136.719 99.8438V11.4844C136.719 5.14173 131.577 0 125.234 0ZM125.781 16.4062C125.781 19.4266 123.333 21.875 120.313 21.875H91.9736C87.9083 21.875 85.2641 17.5967 87.0822 13.9606C88.0086 12.1078 89.9022 10.9375 91.9736 10.9375H120.313C123.333 10.9375 125.781 13.3859 125.781 16.4062Z" fill="url(#paint0_linear_2512_19)"/>
<path d="M98.6835 36.4102C92.4988 36.4332 86.574 38.9003 82.2008 43.2735C77.8275 47.6468 75.3604 53.5716 75.3374 59.7563V79.225H63.6616V129.849H133.733V79.225H122.062V59.7727C122.045 53.579 119.576 47.6443 115.195 43.2662C110.814 38.8882 104.877 36.4231 98.6835 36.4102ZM98.6835 44.1977C102.799 44.1846 106.751 45.8054 109.672 48.7041C112.594 51.6028 114.245 55.5425 114.264 59.6578V79.2414H83.1249V59.7727C83.1045 55.6588 84.7189 51.7053 87.613 48.7814C90.507 45.8576 94.4439 44.203 98.5577 44.1813H98.5851L98.6835 44.1977Z" fill="#FBAB37"/>
<defs>
<linearGradient id="paint0_linear_2512_19" x1="68.3594" y1="0" x2="68.3594" y2="114.844" gradientUnits="userSpaceOnUse">
<stop stop-color="#006EE2"/>
<stop offset="1" stop-color="#02458B"/>
</linearGradient>
</defs>
</svg>
